<svg width="0" height="0" xmlns="http://www.w3.org/2000/svg">
  <!-- Auth -->
  <symbol id="authIcon" viewBox="0 0 24 24">
    <path fill-rule="evenodd" clip-rule="evenodd" d="M12 12a4 4 0 1 0 0-8 4 4 0 0 0 0 8Zm0 2a6 6 0 1 0 0-12 6 6 0 0 0 0 12ZM5.54 15.54c1.85-.33 4.62-.44 6.46-.44 1.84 0 4.6.1 6.46.44a3.85 3.85 0 0 1 2.98 2.15c.49 1.01.56 2.22.56 3.31a1 1 0 1 1-2 0 5.9 5.9 0 0 0-.36-2.45c-.24-.49-.63-.88-1.54-1.04-1.71-.31-4.36-.41-6.1-.41-1.74 0-4.39.1-6.1.4-.9.17-1.3.56-1.54 1.05A5.9 5.9 0 0 0 4 21a1 1 0 1 1-2 0c0-1.09.07-2.3.56-3.31a3.85 3.85 0 0 1 2.98-2.15Z" fill="currentColor"/>
  </symbol>

  <!-- Chevron right -->
  <symbol id="chevronRightIcon" viewBox="0 0 24 24">
    <path fill-rule="evenodd" clip-rule="evenodd" d="M7.88 4.3a1 1 0 0 0 0 1.4l6.3 6.3-6.3 6.3a1 1 0 1 0 1.41 1.4L17 12 9.3 4.3a1 1 0 0 0-1.42 0Z" fill="currentColor"/>
  </symbol>

  <!-- Heart -->
  <!-- Heart -->
  <symbol id="heartIcon" viewBox="0 0 24 24">
    <path fill-rule="evenodd" clip-rule="evenodd" d="M9.4 5.44a3.59 3.59 0 0 0-4.56.94A3.85 3.85 0 0 0 4 8.78c0 2.68 1.96 5.28 4.18 7.32A27.5 27.5 0 0 0 12 19.03a26.27 26.27 0 0 0 3.82-2.93C18.04 14.06 20 11.46 20 8.8c0-.88-.3-1.74-.84-2.41a3.59 3.59 0 0 0-4.56-.94 3.75 3.75 0 0 0-1.67 1.88 1 1 0 0 1-1.86 0A3.75 3.75 0 0 0 9.4 5.44ZM12 20.2l-.5.87-.03-.02a12.38 12.38 0 0 1-.39-.23 29.5 29.5 0 0 1-4.26-3.24C4.54 15.48 2 12.37 2 8.78c0-1.33.45-2.62 1.28-3.65a5.66 5.66 0 0 1 7.08-1.45c.63.35 1.18.8 1.64 1.35a5.7 5.7 0 0 1 5.44-1.92c1.3.27 2.45.98 3.28 2.02A5.85 5.85 0 0 1 22 8.79c0 3.58-2.54 6.69-4.82 8.79a29.48 29.48 0 0 1-4.63 3.45l-.02.02-.02.01h-.01l-.5-.86Zm0 0 .5.87a1 1 0 0 1-1 0l.5-.87Z" fill="currentColor"/>
  </symbol>
</svg>
