<svg width="98" height="28" fill="none" xmlns="http://www.w3.org/2000/svg"><rect x="66" y="2" width="32" height="20" rx="10" fill="#fff"/><path d="M80.29 11.53a2.06 2.06 0 0 0 1.07-1.94c0-1.45-1.02-2.59-3.05-2.59h-3.1v10h2.99c2.27 0 3.42-1.27 3.42-2.9 0-.98-.42-1.72-1.33-2.18v-.4Zm-2.16-.42h-1.41V8.4h1.41c1.25 0 1.7.5 1.7 1.35 0 .84-.45 1.35-1.7 1.35Zm0 4.49h-1.41v-3.1h1.41c1.43 0 1.96.58 1.96 1.56 0 .97-.53 1.54-1.96 1.54ZM85.1 10.73 83.46 7H81.9l2.76 6.28V17h1.5v-3.72L88.9 7h-1.54l-1.64 3.73h-.64Z" fill="#8F8F8F"/><path d="M55.6 10.22c.67-1.16 2.44-3.13 5.5-1.57 2.04 1.02 2.65 3.27 1.56 5.25-1.77 3.34-7.2 11.44-7.2 11.44a4.65 4.65 0 0 1-3.88 2.05c-1.5 0-2.92-.82-3.8-2.39-.48-.82-2.65-4.77-2.65-4.77h-.07c-1.09 1.5-6.05 7.3-12.5 7.3a9.26 9.26 0 0 1-6.94-2.87C24.6 25.21 19.03 28 12.64 28 6.66 28 0 24.92 0 17.97c0-7.9 8.77-8.77 12.17-7.82l-.14-6.88c0-1.84 1.7-3.27 3.87-3.27 2.25 0 4.08 1.43 4.08 3.27l-.07 10.83c0 1.98-1.97 3.27-3.73 3.27a6.45 6.45 0 0 1-3.54-1.3c-1.5-.47-4.08.08-4.08 2.53 0 1.36 1.16 2.66 3.4 2.66 3.67 0 7.95-1.78 10.94-4.77 0-1.37 1.1-8.72 7.14-8.72 3.26 0 5.57 2.18 5.57 5.51 0 3.41-2.72 6.34-4.21 7.36v.07c4.08 0 8.22-5.31 9.72-8.52.07-.4.54-2.72 2.85-3.27 1.3-.27 3-.13 4.08 1.78.61 1.15 3.2 6.8 3.2 6.8h.06s2.45-3.87 4.28-7.28ZM62.12 22a5.2 5.2 0 0 1 5.23-5.24A5.2 5.2 0 0 1 72.58 22a5.18 5.18 0 0 1-5.23 5.18A5.18 5.18 0 0 1 62.12 22Z" fill="#283CDC"/></svg>
